<?xml version="1.0" encoding="UTF-8" standalone="no"?>
<svg
   xmlns:dc="http://purl.org/dc/elements/1.1/"
   xmlns:cc="http://creativecommons.org/ns#"
   xmlns:rdf="http://www.w3.org/1999/02/22-rdf-syntax-ns#"
   xmlns:svg="http://www.w3.org/2000/svg"
   xmlns="http://www.w3.org/2000/svg"
   xmlns:sodipodi="http://sodipodi.sourceforge.net/DTD/sodipodi-0.dtd"
   xmlns:inkscape="http://www.inkscape.org/namespaces/inkscape"
   viewBox="0 0 48 48"
   width="48px"
   height="48px"
   version="1.1"
   id="svg8"
   sodipodi:docname="google_scholar.svg"
   inkscape:version="0.92.3 (2405546, 2018-03-11)">
  <metadata
     id="metadata14">
    <rdf:RDF>
      <cc:Work
         rdf:about="">
        <dc:format>image/svg+xml</dc:format>
        <dc:type
           rdf:resource="http://purl.org/dc/dcmitype/StillImage" />
      </cc:Work>
    </rdf:RDF>
  </metadata>
  <defs
     id="defs12" />
  <sodipodi:namedview
     pagecolor="#ffffff"
     bordercolor="#000000"
     borderopacity="0.25"
     objecttolerance="10"
     gridtolerance="10"
     guidetolerance="10"
     inkscape:pageopacity="0"
     inkscape:pageshadow="2"
     inkscape:window-width="867"
     inkscape:window-height="995"
     id="namedview10"
     showgrid="false"
     inkscape:zoom="9.8333333"
     inkscape:cx="37.266821"
     inkscape:cy="19.582214"
     inkscape:window-x="2957"
     inkscape:window-y="1107"
     inkscape:window-maximized="0"
     inkscape:current-layer="svg8" />
  <path
     d="M 24,0.74576271 C 11.156685,0.74576271 0.74576271,11.156685 0.74576271,24 0.74576271,36.843315 11.156685,47.254237 24,47.254237 36.843315,47.254237 47.254237,36.843315 47.254237,24 47.254237,11.156685 36.843315,0.74576271 24,0.74576271 Z"
     id="path2"
     inkscape:connector-curvature="0"
     style="fill:#1e88e5;stroke-width:1.16271186" />
  <path
     d="M 36.789831,15.386631 V 10.877634 L 39.115254,8.8847458 H 27.488136 l 1.066206,2.1312512 c -1.437111,0 -2.633542,0 -2.633542,0 0,0 -7.623902,0.194172 -7.623902,6.87744 0,6.687919 6.664665,5.915878 6.664665,5.915878 0,0 0,1.005746 0,1.689421 0,0.69065 0.895288,0.45462 1.004583,1.840572 -0.451132,0 -9.259838,-0.241844 -9.259838,5.811234 0,6.053078 7.765753,5.765889 7.765753,5.765889 0,0 8.978461,0.424389 8.978461,-7.097194 0,-4.500857 -5.121746,-5.954247 -5.121746,-7.773891 0,-1.817319 3.859041,-2.339377 3.859041,-6.608854 0,-0.956912 -0.03256,-1.771973 -0.173244,-2.46495 l 3.612546,-3.097464 v 3.51139 c -0.675536,0.240681 -1.162712,0.87901 -1.162712,1.637098 v 5.232203 c 0,0.963889 0.781342,1.744068 1.744068,1.744068 0.962725,0 1.744067,-0.780179 1.744067,-1.744068 v -5.23104 c 0,-0.758088 -0.487176,-1.396417 -1.162711,-1.637098 z m -5.758912,16.94885 c 0.152315,2.353329 -2.242872,4.431095 -5.351963,4.648522 -3.105603,0.21859 -5.750773,-1.505711 -5.903088,-3.855552 -0.154641,-2.344027 2.240546,-4.424119 5.348474,-4.646197 3.109092,-0.21859 5.751936,1.508038 5.906577,3.853227 z m -4.57876,-10.134196 c -1.851037,0.524383 -3.924152,-1.2348 -4.629918,-3.914851 -0.702278,-2.68819 0.226728,-5.2822 2.076603,-5.804258 1.8522,-0.526708 3.92299,1.231312 4.628756,3.914851 0.703441,2.684702 -0.223241,5.2822 -2.075441,5.804258 z"
     id="path4"
     inkscape:connector-curvature="0"
     style="fill:#1565c0;stroke-width:1.16271186" />
  <path
     d="m 35.627119,15.386631 v -5.339173 c 0,-0.059299 -0.01744,-0.1127834 -0.03372,-0.1662682 L 36.78983,8.8847458 H 20.511864 L 10.047458,18.186441 h 6.258878 c 0.202311,6.355383 6.644898,5.622874 6.644898,5.622874 0,0 0,1.005746 0,1.689421 0,0.69065 0.896451,0.45462 1.005746,1.840572 -0.451133,0 -9.259838,-0.241844 -9.259838,5.811234 0,6.053078 7.765753,5.765889 7.765753,5.765889 0,0 8.977298,0.424389 8.977298,-7.097194 0,-4.500857 -5.120583,-5.954247 -5.120583,-7.773891 0,-1.817319 3.857878,-2.339377 3.857878,-6.608854 0,-1.128994 -0.05465,-2.049861 -0.269749,-2.816089 l 4.556668,-3.797417 v 4.563645 c -0.675536,0.240681 -1.162712,0.87901 -1.162712,1.637098 v 5.232203 c 0,0.963888 0.781342,1.744068 1.744068,1.744068 0.962725,0 1.744068,-0.78018 1.744068,-1.744068 v -5.232203 c 0,-0.758088 -0.487177,-1.396417 -1.162712,-1.637098 z m -6.605366,16.94885 c 0.152315,2.353329 -2.241709,4.431095 -5.3508,4.648522 -3.105604,0.21859 -5.750773,-1.505711 -5.903089,-3.855552 -0.15464,-2.344027 2.240546,-4.424119 5.347312,-4.646197 3.110255,-0.21859 5.753099,1.508038 5.906577,3.853227 z M 24.441831,22.201285 c -1.849875,0.524383 -3.921828,-1.2348 -4.628756,-3.914851 -0.702278,-2.68819 0.225566,-5.2822 2.07544,-5.804258 1.8522,-0.526708 3.92299,1.231312 4.629919,3.914851 0.702278,2.684702 -0.224403,5.2822 -2.076603,5.804258 z"
     id="path6"
     inkscape:connector-curvature="0"
     style="fill:#e8eaf6;stroke-width:1.16271186" />
</svg>
